<mxfile host="app.diagrams.net" modified="2023-05-02T20:28:21.362Z" agent="Mozilla/5.0 (Windows NT 10.0; Win64; x64) AppleWebKit/537.36 (KHTML, like Gecko) Chrome/112.0.0.0 Safari/537.36" version="21.2.4" etag="WbwEHpczU3CfHqiIxmUJ" type="github">
  <diagram name="PÃ¡gina-1" id="TLZ-EeKfrccLA-t3vhqp">
    <mxGraphModel>
      <root>
        <mxCell id="0" />
        <mxCell id="1" parent="0" />
      </root>
    </mxGraphModel>
  </diagram>
</mxfile>
